# xmcd CD database file
#
# Track frame offsets:
#	150
#	14962
#	27617
#	40735
#	54467
#	67085
#	80342
#	92210
#	102497
#	116157
#	128812
#	141280
#	153137
#	164509
#	174762
#	187975
#	203267
#	214935
#	229192
#	242575
#	254125
#
# Disc length: 3535 seconds
#
# Revision: 0
# Processed by: cddbd v1.5.1PL0 Copyright (c) Steve Scherf et al.
# Submitted via: CDex 1.51
#
DISCID=2d0dcd15
DTITLE=Various Artist - Steady Rock Blues CD 2
DYEAR=1900
DGENRE=Blues
TTITLE0=Aaron Thibeaux Walker "T-Bone Walker"/ I Got A Braek Baby
TTITLE1=Aaron Thibeaux Walker "T-Bone Walker"/ Hypin' Woman Blues
TTITLE2=Aaron Thibeaux Walker "T-Bone Walker"/ I Gonna Find My Baby
TTITLE3=Aaron Thibeaux Walker "T-Bone Walker"/ T-Bone Boogie
TTITLE4=Sonny Terry/ Airlane Blues
TTITLE5=Joseph Vernon "Big Joe" Tuner/ It's The Same Old Story
TTITLE6=Robert Johnson/ When You Got A Good Friend
TTITLE7=Robert Johnson/ Stop Breakin' Down Blues
TTITLE8=John Lee "Sonny Boy" Williamson/ Springtime Blues
TTITLE9=John Lee "Sonny Boy" Williamson/ I Been Dealing With The Devil
TTITLE10=John Lee "Sonny Boy" Williamson/ I'm Gonna Catch You Soon
TTITLE11=John Lee "Sonny Boy" Williamson/ She Was A Dreamer
TTITLE12=Willie James "Big" Dixon/ Big 3 Boogie
TTITLE13=Muddy Waters/ Mean Red Spider
TTITLE14=Muddy Waters/ Walkin' Blues
TTITLE15=Muddy Waters/ Country Blues
TTITLE16=Muddy Waters/ You Gonna Miss Me
TTITLE17=Peter Chatman (Memphis Slim)/ Ginder Man Blues
TTITLE18=Walter Brown "Brownie" McGhee/ I Want King Jesus
TTITLE19=Walter Brown "Brownie" McGhee/ Millon Lonesome Women
TTITLE20=Lowell Fulson/ The Blues Is Killing Me
EXTD=
EXTT0=
EXTT1=
EXTT2=
EXTT3=
EXTT4=
EXTT5=
EXTT6=
EXTT7=
EXTT8=
EXTT9=
EXTT10=
EXTT11=
EXTT12=
EXTT13=
EXTT14=
EXTT15=
EXTT16=
EXTT17=
EXTT18=
EXTT19=
EXTT20=
PLAYORDER=
